# xmcd
#
# Track frame offsets:
#	150
#	21983
#	37952
#	55394
#	74449
#	89652
#	108949
#	123010
#	145248
#	169741
#	187499
#	205768
#	228872
#	248003
#	260490
#	282532
#	297329
#	315459
#
# Disc length: 4490 seconds
#
# Revision: 1
# Processed by: cddbd v1.5.2PL0 Copyright (c) Steve Scherf et al.
# Submitted via: audiograbber 1.82.01
#
DISCID=10118812
DTITLE=Abba - Number Ones
DYEAR=2006
DGENRE=Pop
TTITLE0=Gimme! Gimme! Gimme! (A Man After Midnight)
TTITLE1=Mamma Mia
TTITLE2=Dancing Queen
TTITLE3=Super Trouper
TTITLE4=Sos
TTITLE5=Summer Night City
TTITLE6=Money, Money, Money
TTITLE7=The Winner Takes It All
TTITLE8=Chiquitita
TTITLE9=One Of Us
TTITLE10=Knowing Me, Knowing You
TTITLE11=Voulez-Cous
TTITLE12=Fernando
TTITLE13=Waterloo
TTITLE14=The Name Of The Game
TTITLE15=I Do, I Do, I Do, I Do, I Do
TTITLE16=Take A Chance On Me
TTITLE17=I Have A Dream
EXTD=
EXTT0=
EXTT1=
EXTT2=
EXTT3=
EXTT4=
EXTT5=
EXTT6=
EXTT7=
EXTT8=
EXTT9=
EXTT10=
EXTT11=
EXTT12=
EXTT13=
EXTT14=
EXTT15=
EXTT16=
EXTT17=
PLAYORDER=
